<mxfile host="65bd71144e">
    <diagram id="isClg8Pfs6-J4wvf-s_Q" name="Page-1">
        <mxGraphModel dx="667" dy="804" grid="1" gridSize="10" guides="1" tooltips="1" connect="1" arrows="1" fold="1" page="1" pageScale="1" pageWidth="850" pageHeight="1100" math="0" shadow="0">
            <root>
                <mxCell id="0"/>
                <mxCell id="1" parent="0"/>
                <mxCell id="3" value="Car" style="rounded=0;whiteSpace=wrap;html=1;" vertex="1" parent="1">
                    <mxGeometry x="40" y="40" width="120" height="60" as="geometry"/>
                </mxCell>
                <mxCell id="5" value="make: String&lt;br&gt;model: String&lt;br&gt;year: Number&lt;br&gt;colour: String&lt;br&gt;extras: Array" style="rounded=0;whiteSpace=wrap;html=1;align=left;spacingLeft=12;" vertex="1" parent="1">
                    <mxGeometry x="40" y="100" width="120" height="100" as="geometry"/>
                </mxCell>
                <mxCell id="6" value="getDetails()" style="rounded=0;whiteSpace=wrap;html=1;align=left;spacingLeft=12;" vertex="1" parent="1">
                    <mxGeometry x="40" y="200" width="120" height="60" as="geometry"/>
                </mxCell>
            </root>
        </mxGraphModel>
    </diagram>
</mxfile>